<?xml version="1.0" encoding="UTF-8" standalone="no"?>
<!-- Created with Inkscape (http://www.inkscape.org/) -->

<svg
   version="1.1"
   id="svg2"
   xml:space="preserve"
   width="140"
   height="140"
   viewBox="0 0 140 140"
   sodipodi:docname="hat.svg"
   inkscape:version="1.1.2 (0a00cf5339, 2022-02-04)"
   inkscape:export-filename="/home/diego/Documentos/WithMadrid/frontend/src/assets/hat.png"
   inkscape:export-xdpi="300"
   inkscape:export-ydpi="300"
   xmlns:inkscape="http://www.inkscape.org/namespaces/inkscape"
   xmlns:sodipodi="http://sodipodi.sourceforge.net/DTD/sodipodi-0.dtd"
   xmlns="http://www.w3.org/2000/svg"
   xmlns:svg="http://www.w3.org/2000/svg"><defs
     id="defs6"><clipPath
       clipPathUnits="userSpaceOnUse"
       id="clipPath26"><path
         d="m 2850.53,2480.57 -10.04,2.92 7.01,2.01 9.91,-2.88 -6.88,-2.05 m -747.82,0 -6.75,2.05 9.71,2.88 6.87,-2.01 -9.83,-2.92"
         id="path24" /></clipPath><linearGradient
       x1="0"
       y1="0"
       x2="1"
       y2="0"
       gradientUnits="userSpaceOnUse"
       gradientTransform="matrix(0,120.119,120.119,0,2476.69,2368.89)"
       spreadMethod="pad"
       id="linearGradient32"><stop
         style="stop-opacity:1;stop-color:#ffffff"
         offset="0"
         id="stop28" /><stop
         style="stop-opacity:1;stop-color:#1d1d1b"
         offset="1"
         id="stop30" /></linearGradient><clipPath
       clipPathUnits="userSpaceOnUse"
       id="clipPath42"><path
         d="m 2472.87,2368.34 v 0 l -175.66,53.26 c 0.52,1.59 1.07,2.81 1.64,3.64 0.71,0.9 1.69,1.87 2.91,2.91 l 171.11,-50.04 367.62,105.38 10.04,-2.92 -377.66,-112.23 m -193.82,58.76 -176.34,53.47 9.83,2.92 169.01,-49.43 c -0.89,-1.89 -1.72,-4.21 -2.5,-6.96"
         id="path40" /></clipPath><linearGradient
       x1="0"
       y1="0"
       x2="1"
       y2="0"
       gradientUnits="userSpaceOnUse"
       gradientTransform="matrix(0,120.119,120.119,0,2476.69,2368.89)"
       spreadMethod="pad"
       id="linearGradient48"><stop
         style="stop-opacity:1;stop-color:#350063"
         offset="0"
         id="stop44" /><stop
         style="stop-opacity:1;stop-color:#04000c"
         offset="1"
         id="stop46" /></linearGradient><clipPath
       clipPathUnits="userSpaceOnUse"
       id="clipPath326"><path
         d="m 2500.25,128.289 h -44.48 c -2.7,0 -4.91,2.211 -4.91,4.91 v 42.153 c 0,2.699 2.21,4.91 4.91,4.91 h 44.48 c 2.7,0 4.91,-2.211 4.91,-4.91 v -18.68 c -0.3,0.078 -0.62,0.129 -0.95,0.129 h -4.98 v 13.937 0 c 0,2.114 -1.73,3.844 -3.84,3.844 h -34.75 c -2.12,0 -3.84,-1.73 -3.84,-3.844 v -32.929 0 c 0,-2.11 1.72,-3.84 3.84,-3.84 h 34.75 c 2.11,0 3.84,1.73 3.84,3.84 v 10.57 h 4.27 c 0.6,0 1.17,0.152 1.66,0.422 v -15.602 c 0,-2.699 -2.21,-4.91 -4.91,-4.91"
         id="path324" /></clipPath><linearGradient
       x1="0"
       y1="0"
       x2="1"
       y2="0"
       gradientUnits="userSpaceOnUse"
       gradientTransform="matrix(54.304,0,0,-54.304,2450.86,154.27)"
       spreadMethod="pad"
       id="linearGradient332"><stop
         style="stop-opacity:1;stop-color:#cf9700"
         offset="0"
         id="stop328" /><stop
         style="stop-opacity:1;stop-color:#e5c300"
         offset="1"
         id="stop330" /></linearGradient><clipPath
       clipPathUnits="userSpaceOnUse"
       id="clipPath348"><path
         d="m 2503.5,148.379 h -4.27 v 1.262 h 4.98 c 0.33,0 0.65,0.05 0.95,0.129 v -0.969 c -0.49,-0.27 -1.06,-0.422 -1.66,-0.422"
         id="path346" /></clipPath><linearGradient
       x1="0"
       y1="0"
       x2="1"
       y2="0"
       gradientUnits="userSpaceOnUse"
       gradientTransform="matrix(54.304,0,0,-54.304,2450.86,154.27)"
       spreadMethod="pad"
       id="linearGradient354"><stop
         style="stop-opacity:1;stop-color:#946800"
         offset="0"
         id="stop350" /><stop
         style="stop-opacity:1;stop-color:#a38600"
         offset="1"
         id="stop352" /></linearGradient><clipPath
       clipPathUnits="userSpaceOnUse"
       id="clipPath366"><path
         d="m 2504.11,151.75 h -20.06 c -0.97,0 -1.75,0.781 -1.75,1.75 v 0.809 c 0,0.972 0.78,1.75 1.75,1.75 h 20.06 c 0.97,0 1.76,-0.778 1.76,-1.75 V 153.5 c 0,-0.969 -0.79,-1.75 -1.76,-1.75"
         id="path364" /></clipPath><linearGradient
       x1="0"
       y1="0"
       x2="1"
       y2="0"
       gradientUnits="userSpaceOnUse"
       gradientTransform="matrix(23.567,0,0,-23.567,2482.3,153.9)"
       spreadMethod="pad"
       id="linearGradient372"><stop
         style="stop-opacity:1;stop-color:#cf9700"
         offset="0"
         id="stop368" /><stop
         style="stop-opacity:1;stop-color:#e5c300"
         offset="1"
         id="stop370" /></linearGradient><clipPath
       clipPathUnits="userSpaceOnUse"
       id="clipPath560"><path
         d="m 3234.3,195.672 c 0,0 7.57,4.609 18.88,16.797 -20.18,11.562 -128.16,79.793 -151.37,227.89 -19.14,122.133 16.85,210.211 43.42,244.45 l -0.88,0.511 c -0.49,0.172 -1.01,0.262 -1.58,0.262 v 0 c 0.57,0 1.1,-0.09 1.58,-0.262 17.08,-6.101 -3.66,-52.48 -6.1,-73.23 -2.45,-20.738 -1.22,-153.781 53.7,-206.258 48.33,-46.184 104.63,-48.953 117.44,-48.953 0.85,0 1.5,0.012 1.95,0.031 0.49,0.012 0.74,0.02 0.74,0.02 0,0 6.53,-36.77 -21.68,-90.282 -28.75,-54.519 -56.07,-70.957 -56.1,-70.976 v 0"
         id="path558" /></clipPath><linearGradient
       x1="0"
       y1="0"
       x2="1"
       y2="0"
       gradientUnits="userSpaceOnUse"
       gradientTransform="matrix(0,-317.513,-317.513,0,3193.5,850.7)"
       spreadMethod="pad"
       id="linearGradient568"><stop
         style="stop-opacity:1;stop-color:#878787"
         offset="0"
         id="stop562" /><stop
         style="stop-opacity:1;stop-color:#878787"
         offset="0.59066386"
         id="stop564" /><stop
         style="stop-opacity:1;stop-color:#d5deda"
         offset="1"
         id="stop566" /></linearGradient><clipPath
       clipPathUnits="userSpaceOnUse"
       id="clipPath578"><path
         d="m 3686.03,195.832 c 0,0 -26.84,16.129 -55.31,69.477 6.33,-11.868 12.57,-21.821 18.47,-30.239 29.41,18.231 124.32,86.871 145.91,224.621 15.03,95.911 -3.95,170.789 -25.65,215.118 -1.51,-16.278 10.46,-46.067 12.55,-61.938 -2.77,21.027 -22.94,66.559 -6.02,72.598 0.48,0.179 1.01,0.261 1.58,0.261 19.57,0 88,-101.308 63.1,-260.218 -25.53,-162.891 -153.61,-229.16 -154.63,-229.68 v 0 m -55.37,69.578 c -0.03,0.059 -0.06,0.121 -0.09,0.18 0.03,-0.059 0.06,-0.121 0.09,-0.18 m -0.19,0.371 c -0.02,0.028 -0.03,0.059 -0.05,0.09 0.02,-0.031 0.03,-0.062 0.05,-0.09 m -0.2,0.379 -0.01,0.012 0.01,-0.012 m -0.84,1.582 c -18.84,36.129 -21.84,64.52 -21.84,78.93 0,-14.41 3,-42.801 21.84,-78.93 m 152.65,344.508 c -0.01,0.031 -0.01,0.07 -0.02,0.102 0.01,-0.032 0.01,-0.071 0.02,-0.102 m -0.02,0.141 c 0,0.031 -0.01,0.05 -0.01,0.078 0,-0.028 0.01,-0.047 0.01,-0.078 m -0.01,0.109 c -0.01,0.082 -0.02,0.148 -0.03,0.23 0.01,-0.082 0.02,-0.148 0.03,-0.23 m -0.03,0.25 c -0.01,0.031 -0.01,0.07 -0.02,0.102 0.01,-0.032 0.01,-0.071 0.02,-0.102"
         id="path576" /></clipPath><linearGradient
       x1="0"
       y1="0"
       x2="1"
       y2="0"
       gradientUnits="userSpaceOnUse"
       gradientTransform="matrix(0,-281.825,-281.825,0,3726.82,837.84)"
       spreadMethod="pad"
       id="linearGradient586"><stop
         style="stop-opacity:1;stop-color:#878787"
         offset="0"
         id="stop580" /><stop
         style="stop-opacity:1;stop-color:#878787"
         offset="0.59066386"
         id="stop582" /><stop
         style="stop-opacity:1;stop-color:#d5deda"
         offset="1"
         id="stop584" /></linearGradient><clipPath
       clipPathUnits="userSpaceOnUse"
       id="clipPath604"><path
         d="m 3234.3,195.672 c 0,0 -0.01,0 -0.01,0.008 -1.02,0.519 -129.1,66.789 -154.63,229.679 -24.9,158.922 43.54,260.223 63.11,260.223 0.57,0 1.09,-0.09 1.58,-0.262 l 0.88,-0.511 c -26.57,-34.239 -62.56,-122.317 -43.42,-244.45 23.21,-148.097 131.19,-216.328 151.37,-227.89 -11.31,-12.188 -18.88,-16.797 -18.88,-16.797 v 0"
         id="path602" /></clipPath><linearGradient
       x1="0"
       y1="0"
       x2="1"
       y2="0"
       gradientUnits="userSpaceOnUse"
       gradientTransform="matrix(0,-317.513,-317.513,0,3193.5,850.7)"
       spreadMethod="pad"
       id="linearGradient610"><stop
         style="stop-opacity:1;stop-color:#807f80"
         offset="0"
         id="stop606" /><stop
         style="stop-opacity:1;stop-color:#c9d0cf"
         offset="1"
         id="stop608" /></linearGradient><clipPath
       clipPathUnits="userSpaceOnUse"
       id="clipPath628"><path
         d="m 3649.19,235.07 c -5.9,8.418 -12.14,18.371 -18.47,30.239 -0.02,0.043 -0.04,0.07 -0.06,0.101 -0.03,0.059 -0.06,0.121 -0.09,0.18 -0.03,0.058 -0.07,0.129 -0.1,0.191 -0.02,0.028 -0.03,0.059 -0.05,0.09 -0.05,0.098 -0.1,0.188 -0.15,0.289 l -0.01,0.012 c -0.11,0.207 -0.22,0.418 -0.33,0.629 -0.17,0.32 -0.33,0.629 -0.5,0.941 -18.84,36.129 -21.84,64.52 -21.84,78.93 0,6.726 0.65,10.41 0.65,10.41 0,0 0.26,-0.012 0.74,-0.023 0.45,-0.02 1.11,-0.028 1.95,-0.028 12.82,0 69.12,2.77 117.45,48.957 v 0 c 46.18,44.121 54.39,145.203 54.38,188.594 0,8.207 -0.29,14.359 -0.68,17.668 v 0 c -0.01,0.031 -0.01,0.07 -0.02,0.102 0,0.019 0,0.027 0,0.039 0,0.031 -0.01,0.05 -0.01,0.078 0,0.011 0,0.023 0,0.031 -0.01,0.082 -0.02,0.148 -0.03,0.23 0,0.012 0,0.012 0,0.02 -0.01,0.031 -0.01,0.07 -0.02,0.102 0,0.007 0,0.007 0,0.019 -2.09,15.871 -14.06,45.66 -12.55,61.938 21.7,-44.329 40.68,-119.207 25.65,-215.118 -21.59,-137.75 -116.5,-206.39 -145.91,-224.621"
         id="path626" /></clipPath><linearGradient
       x1="0"
       y1="0"
       x2="1"
       y2="0"
       gradientUnits="userSpaceOnUse"
       gradientTransform="matrix(0,-281.825,-281.825,0,3726.82,837.84)"
       spreadMethod="pad"
       id="linearGradient634"><stop
         style="stop-opacity:1;stop-color:#807f80"
         offset="0"
         id="stop630" /><stop
         style="stop-opacity:1;stop-color:#c9d0cf"
         offset="1"
         id="stop632" /></linearGradient><clipPath
       clipPathUnits="userSpaceOnUse"
       id="clipPath326-3"><path
         d="m 2500.25,128.289 h -44.48 c -2.7,0 -4.91,2.211 -4.91,4.91 v 42.153 c 0,2.699 2.21,4.91 4.91,4.91 h 44.48 c 2.7,0 4.91,-2.211 4.91,-4.91 v -18.68 c -0.3,0.078 -0.62,0.129 -0.95,0.129 h -4.98 v 13.937 0 c 0,2.114 -1.73,3.844 -3.84,3.844 h -34.75 c -2.12,0 -3.84,-1.73 -3.84,-3.844 v -32.929 0 c 0,-2.11 1.72,-3.84 3.84,-3.84 h 34.75 c 2.11,0 3.84,1.73 3.84,3.84 v 10.57 h 4.27 c 0.6,0 1.17,0.152 1.66,0.422 v -15.602 c 0,-2.699 -2.21,-4.91 -4.91,-4.91"
         id="path324-6" /></clipPath><clipPath
       clipPathUnits="userSpaceOnUse"
       id="clipPath366-7"><path
         d="m 2504.11,151.75 h -20.06 c -0.97,0 -1.75,0.781 -1.75,1.75 v 0.809 c 0,0.972 0.78,1.75 1.75,1.75 h 20.06 c 0.97,0 1.76,-0.778 1.76,-1.75 V 153.5 c 0,-0.969 -0.79,-1.75 -1.76,-1.75"
         id="path364-5" /></clipPath></defs><sodipodi:namedview
     id="namedview4"
     pagecolor="#505050"
     bordercolor="#eeeeee"
     borderopacity="1"
     inkscape:pageshadow="0"
     inkscape:pageopacity="0"
     inkscape:pagecheckerboard="0"
     showgrid="false"
     inkscape:zoom="3.2803745"
     inkscape:cx="162.63387"
     inkscape:cy="99.531318"
     inkscape:window-width="1920"
     inkscape:window-height="1016"
     inkscape:window-x="0"
     inkscape:window-y="0"
     inkscape:window-maximized="1"
     inkscape:current-layer="g8" /><g
     inkscape:groupmode="layer"
     id="layer1"
     inkscape:label="background"
     sodipodi:insensitive="true"
     style="display:inline"><rect
       style="fill:#000000;stroke-width:14.895;stroke-linecap:round;stroke-linejoin:round;paint-order:markers stroke fill"
       id="rect2862"
       width="105"
       height="105"
       x="1.3125e-06"
       y="-369.47"
       transform="matrix(1.3333333,0,0,1.3333333,0,492.62667)" /></g><g
     id="g8"
     inkscape:groupmode="layer"
     inkscape:label="icono"
     transform="matrix(1.3333333,0,0,-1.3333333,0,492.62667)"><g
       id="g4265"
       transform="matrix(0.92857147,0,0,0.92857147,3.7499984,21.970234)"><g
         id="g3304"
         style="fill:#ffffff"><path
           d="M 52.500742,297.15412 C 23.50435,297.15412 1.50302e-6,291.23556 1.50302e-6,283.93518 1.50302e-6,276.63436 23.50435,270.71467 52.500742,270.71467 81.495654,270.71467 105,276.63436 105,283.93518 c 0,7.30038 -23.504346,13.21894 -52.499258,13.21894"
           style="fill:#ffffff;fill-opacity:1;fill-rule:nonzero;stroke:none;stroke-width:0.147994"
           id="path294" /><path
           d="m 62.253522,338.79805 c -0.70445,1.8511 -9.863775,10.11803 -9.75278,11.55978 0.09176,1.20763 4.488647,13.79582 3.508929,14.3021 -0.782887,0.40417 -10.497188,-12.20947 -10.91453,-13.21879 -0.571256,-1.37649 2.527731,-14.45024 1.444417,-16.79727 -1.220947,-2.6448 -11.349631,-16.96437 -11.559782,-17.70137 -4.808313,-16.80483 -8.706465,-31.66946 -8.706465,-31.73605 0,-2.45981 11.741814,-4.45476 26.227431,-4.45476 14.484136,0 26.225951,1.99495 26.225951,4.45476 0,0.0724 -12.78517,31.63659 -13.763408,32.56437 -1.244626,1.17995 -1.984594,19.11959 -2.709763,21.02723"
           style="fill:#ffffff;fill-opacity:1;fill-rule:nonzero;stroke:none;stroke-width:0.147994"
           id="path296" /></g><path
         d="m 52.500742,288.33799 c -11.336312,0 -20.963298,1.22391 -24.62614,2.93457 -1.007837,-3.75889 -1.601291,-6.03948 -1.601291,-6.06611 0,-2.45981 11.741814,-4.45476 26.227431,-4.45476 14.484136,0 26.225951,1.99495 26.225951,4.45476 0,0.0209 -0.93976,2.35576 -2.32646,5.75843 -4.109783,-1.54802 -13.254309,-2.62689 -23.899491,-2.62689"
         style="fill:#000000;fill-opacity:1;fill-rule:nonzero;stroke:none;stroke-width:0.147994"
         id="path308" /><path
         d="m 45.095141,351.44114 c 0,10e-4 0,0.003 0,0.003 0,0 0,-10e-4 0,-0.003 m 0.0015,0.004 v 0.001 -0.001 m 0.0015,0.003 v 10e-4 -10e-4 m 0,0.003 c 0.0015,0 0.0015,10e-4 0.0015,10e-4 0,0 0,-10e-4 -0.0015,-10e-4 m 0.0015,0.003 c 0.0015,0 0.0015,10e-4 0.0015,0.003 0,-10e-4 0,-0.003 -0.0015,-0.003 m 0.0015,0.003 c 0.0015,0 0.0015,0.001 0.0015,0.003 0,-0.001 0,-0.003 -0.0015,-0.003 m 0.0015,0.003 c 0.0015,10e-4 0.0015,10e-4 0.0015,0.003 0,-0.001 0,-0.001 -0.0015,-0.003 m 0.0015,0.003 c 0.06364,0.13749 0.254549,0.43348 0.543137,0.84623 -0.288588,-0.41394 -0.4795,-0.70874 -0.543137,-0.84623 m 10.905651,13.19674 v 0 0 0"
         style="fill:#1a0045;fill-opacity:1;fill-rule:nonzero;stroke:none;stroke-width:0.147994"
         id="path298" /><path
         d="m 56.151745,364.16401 c 0.0015,0.27112 -0.04292,0.44398 -0.142074,0.49592 v 0 0 c 0.09916,-0.0519 0.143554,-0.2248 0.142074,-0.49592"
         style="fill:#f4f7ff;fill-opacity:1;fill-rule:nonzero;stroke:none;stroke-width:0.147994"
         id="path302" /><path
         d="m 49.107248,280.78869 c -0.147994,0.003 -0.294508,0.006 -0.441021,0.0104 v 0 c 0.145034,-0.003 0.294507,-0.007 0.441021,-0.0104 v 0 m 7.19841,0.009 c 0,0 0,0 0,0.001 0.03256,0 0.06364,10e-4 0.0962,10e-4 v 0 c -0.03256,0 -0.06512,-10e-4 -0.0962,-0.003"
         style="fill:#31005b;fill-opacity:1;fill-rule:nonzero;stroke:none;stroke-width:0.147994"
         id="path314" /><g
         id="g3330"
         style="fill:#ffffff;stroke:none"><g
           id="g320"
           transform="matrix(0.14799363,0,0,0.14799363,-314.0336,261.7391)"
           style="fill:#ffffff;stroke:none"><g
             id="g322"
             clip-path="url(#clipPath326-3)"
             style="fill:#ffffff;stroke:none"><path
               d="m 2500.25,128.289 h -44.48 c -2.7,0 -4.91,2.211 -4.91,4.91 v 42.153 c 0,2.699 2.21,4.91 4.91,4.91 h 44.48 c 2.7,0 4.91,-2.211 4.91,-4.91 v -18.68 c -0.3,0.078 -0.62,0.129 -0.95,0.129 h -4.98 v 13.937 0 c 0,2.114 -1.73,3.844 -3.84,3.844 h -34.75 c -2.12,0 -3.84,-1.73 -3.84,-3.844 v -32.929 0 c 0,-2.11 1.72,-3.84 3.84,-3.84 h 34.75 c 2.11,0 3.84,1.73 3.84,3.84 v 10.57 h 4.27 c 0.6,0 1.17,0.152 1.66,0.422 v -15.602 c 0,-2.699 -2.21,-4.91 -4.91,-4.91"
               style="fill:#ffffff;fill-opacity:1;fill-rule:nonzero;stroke:none"
               id="path334" /></g></g><g
           id="g360"
           transform="matrix(0.14799363,0,0,0.14799363,-314.0336,261.7391)"
           style="fill:#ffffff;stroke:none"><g
             id="g362"
             clip-path="url(#clipPath366-7)"
             style="fill:#ffffff;stroke:none"><path
               d="m 2504.11,151.75 h -20.06 c -0.97,0 -1.75,0.781 -1.75,1.75 v 0.809 c 0,0.972 0.78,1.75 1.75,1.75 h 20.06 c 0.97,0 1.76,-0.778 1.76,-1.75 V 153.5 c 0,-0.969 -0.79,-1.75 -1.76,-1.75"
               style="fill:#ffffff;fill-opacity:1;fill-rule:nonzero;stroke:none"
               id="path374" /></g></g></g></g></g></svg>
